<svg viewBox="0 0 30 32" fill="none" xmlns="http://www.w3.org/2000/svg">
    <g filter="url(#filter0_d_1_2)">
        <path d="M9.53125 19.7812C8.61458 19.8646 7.71875 19.8542 6.84375 19.75C5.98958 19.625 5.22917 19.3958 4.5625 19.0625C3.875 18.7083 3.32292 18.2396 2.90625 17.6562C2.46875 17.0521 2.21875 16.3125 2.15625 15.4375C2.09375 14.625 2.22917 13.9375 2.5625 13.375C2.875 12.8125 3.28125 12.3854 3.78125 12.0938C4.28125 11.8021 4.84375 11.6354 5.46875 11.5938C6.07292 11.5312 6.63542 11.6042 7.15625 11.8125C7.69792 12 8.15625 12.3229 8.53125 12.7812C8.90625 13.2188 9.11458 13.7708 9.15625 14.4375C9.21875 15.3958 9.02083 16.0833 8.5625 16.5C8.10417 16.9167 7.55208 17.1354 6.90625 17.1562C6.26042 17.1771 5.70833 17.0417 5.25 16.75C4.77083 16.4583 4.51042 15.9792 4.46875 15.3125C4.44792 14.9792 4.48958 14.6979 4.59375 14.4688C4.67708 14.2188 4.79167 14.0208 4.9375 13.875C5.0625 13.7083 5.21875 13.5938 5.40625 13.5312C5.59375 13.4479 5.77083 13.4062 5.9375 13.4062C6.29167 13.3854 6.57292 13.4688 6.78125 13.6562C7.01042 13.8229 7.14583 14.0833 7.1875 14.4375C7.20833 14.7708 7.11458 15.0104 6.90625 15.1562C6.69792 15.2812 6.45833 15.2917 6.1875 15.1875C6 15.125 5.89583 14.9792 5.875 14.75C5.83333 14.5208 5.86458 14.3125 5.96875 14.125C5.78125 14.1667 5.625 14.2604 5.5 14.4062C5.375 14.5521 5.3125 14.7708 5.3125 15.0625C5.3125 15.4375 5.41667 15.7604 5.625 16.0312C5.83333 16.2812 6.22917 16.3854 6.8125 16.3438C7.10417 16.3438 7.33333 16.2708 7.5 16.125C7.6875 15.9792 7.83333 15.8125 7.9375 15.625C8.04167 15.4375 8.10417 15.25 8.125 15.0625C8.16667 14.8542 8.1875 14.6875 8.1875 14.5625C8.1875 14.4375 8.15625 14.25 8.09375 14C8.05208 13.75 7.9375 13.5104 7.75 13.2812C7.58333 13.0312 7.33333 12.8125 7 12.625C6.6875 12.4375 6.26042 12.3229 5.71875 12.2812C5.15625 12.2604 4.69792 12.3542 4.34375 12.5625C3.98958 12.75 3.70833 13 3.5 13.3125C3.29167 13.625 3.14583 13.9583 3.0625 14.3125C2.97917 14.6667 2.94792 14.9792 2.96875 15.25C2.98958 15.7917 3.15625 16.2812 3.46875 16.7188C3.76042 17.1562 4.20833 17.5208 4.8125 17.8125C5.39583 18.0833 6.125 18.2708 7 18.375C7.89583 18.4792 8.92708 18.4583 10.0938 18.3125C10.4062 17.5208 10.7083 16.6979 11 15.8438C11.2917 14.9896 11.5625 14.1458 11.8125 13.3125C12.0625 12.4792 12.2812 11.6667 12.4688 10.875C12.6562 10.0833 12.7917 9.35417 12.875 8.6875C13.0625 7.10417 12.9062 5.86458 12.4062 4.96875C11.9062 4.05208 11.1667 3.57292 10.1875 3.53125L10.3125 2.71875C10.6875 2.78125 11.2188 2.85417 11.9062 2.9375C12.6146 3.02083 13.3854 3.09375 14.2188 3.15625C15.0521 3.19792 15.8854 3.21875 16.7188 3.21875C17.5521 3.19792 18.3021 3.11458 18.9688 2.96875L19 3.46875C18.7292 3.55208 18.4792 3.63542 18.25 3.71875C18.0208 3.80208 17.8333 3.91667 17.6875 4.0625C17.5417 4.1875 17.4375 4.36458 17.375 4.59375C17.3125 4.80208 17.3229 5.07292 17.4062 5.40625C17.4896 5.76042 17.625 6.4375 17.8125 7.4375C18 8.4375 18.2292 9.61458 18.5 10.9688C18.7708 12.3229 19.0833 13.7812 19.4375 15.3438C19.7917 16.9062 20.1771 18.4062 20.5938 19.8438C21.0104 21.2812 21.4271 22.5521 21.8438 23.6562C22.2812 24.7604 22.7188 25.6667 23.1562 26.375C23.5938 27.0625 24.0417 27.5312 24.5 27.7812C24.9583 28.0521 25.4375 28.0729 25.9375 27.8438C26.1875 27.6979 26.4062 27.5 26.5938 27.25C26.7604 27.0208 26.9062 26.7292 27.0312 26.375C27.1562 26.0208 27.2292 25.5729 27.25 25.0312L27.7188 24.9375C27.8021 25.2708 27.8229 25.6979 27.7812 26.2188C27.7396 26.7188 27.625 27.2188 27.4375 27.7188C27.25 28.2188 26.9688 28.6562 26.5938 29.0312C26.2188 29.4271 25.7396 29.6562 25.1562 29.7188C24.6771 29.7812 24.1354 29.7604 23.5312 29.6562C22.9479 29.5521 22.3542 29.25 21.75 28.75C21.1667 28.25 20.5938 27.4792 20.0312 26.4375C19.4896 25.3958 19.0208 23.9688 18.625 22.1562C18.5208 21.6354 18.4167 21.125 18.3125 20.625C18.2083 20.1042 18.1042 19.6042 18 19.125C17.3958 19.1667 16.5729 19.2188 15.5312 19.2812C14.4896 19.3438 13.4062 19.4167 12.2812 19.5C11.9688 20.8125 11.7292 21.9792 11.5625 23C11.4583 23.625 11.4062 24.1354 11.4062 24.5312C11.4271 24.9271 11.4896 25.25 11.5938 25.5C11.6979 25.7292 11.8646 25.9167 12.0938 26.0625C12.3438 26.2083 12.6562 26.3438 13.0312 26.4688L13 27.125C12.6458 27.0417 12.1042 26.9896 11.375 26.9688C10.6458 26.9479 9.86458 26.9583 9.03125 27C8.21875 27.0625 7.40625 27.1562 6.59375 27.2812C5.80208 27.4271 5.17708 27.625 4.71875 27.875L4.46875 26.8125C4.90625 26.625 5.28125 26.5 5.59375 26.4375C5.88542 26.3542 6.14583 26.25 6.375 26.125C6.60417 25.9792 6.82292 25.7708 7.03125 25.5C7.23958 25.2083 7.45833 24.7812 7.6875 24.2188C7.875 23.8021 8.125 23.2083 8.4375 22.4375C8.77083 21.6667 9.14583 20.7812 9.5625 19.7812H9.53125ZM15.6562 6.65625C15.4896 7.32292 15.2812 8.09375 15.0312 8.96875C14.7812 9.84375 14.5208 10.7812 14.25 11.7812C13.9792 12.7604 13.6979 13.7812 13.4062 14.8438C13.1354 15.9062 12.875 16.9479 12.625 17.9688C13.6042 17.8229 14.5208 17.7083 15.375 17.625C16.25 17.5417 17.0104 17.4792 17.6562 17.4375C17.1771 15.1875 16.7604 13.1667 16.4062 11.375C16.0521 9.58333 15.8021 8.01042 15.6562 6.65625Z" fill="url(#paint0_linear_1_2)"/>
    </g>
    <defs>
        <filter id="filter0_d_1_2" x="0.0625" y="0.71875" width="29.7812" height="31.0938" filterUnits="userSpaceOnUse" color-interpolation-filters="sRGB">
            <feFlood flood-opacity="0" result="BackgroundImageFix"/>
            <feColorMatrix in="SourceAlpha" type="matrix" values="0 0 0 0 0 0 0 0 0 0 0 0 0 0 0 0 0 0 127 0" result="hardAlpha"/>
            <feOffset/>
            <feGaussianBlur stdDeviation="1"/>
            <feComposite in2="hardAlpha" operator="out"/>
            <feColorMatrix type="matrix" values="0 0 0 0 0.4 0 0 0 0 0.4 0 0 0 0 0.4 0 0 0 1 0"/>
            <feBlend mode="normal" in2="BackgroundImageFix" result="effect1_dropShadow_1_2"/>
            <feBlend mode="normal" in="SourceGraphic" in2="effect1_dropShadow_1_2" result="shape"/>
        </filter>
        <linearGradient id="paint0_linear_1_2" x1="10.5" y1="10.5" x2="29.2888" y2="26.4851" gradientUnits="userSpaceOnUse">
            <stop stop-color="#FFC0CB"/>
            <stop offset="1" stop-color="#9DFFFF"/>
        </linearGradient>
    </defs>
</svg>
