<svg viewBox="0 0 26 28" fill="none" xmlns="http://www.w3.org/2000/svg">
    <path d="M7.53125 17.7812C6.61458 17.8646 5.71875 17.8542 4.84375 17.75C3.98958 17.625 3.22917 17.3958 2.5625 17.0625C1.875 16.7083 1.32292 16.2396 0.90625 15.6562C0.46875 15.0521 0.21875 14.3125 0.15625 13.4375C0.09375 12.625 0.229167 11.9375 0.5625 11.375C0.875 10.8125 1.28125 10.3854 1.78125 10.0938C2.28125 9.80208 2.84375 9.63542 3.46875 9.59375C4.07292 9.53125 4.63542 9.60417 5.15625 9.8125C5.69792 10 6.15625 10.3229 6.53125 10.7812C6.90625 11.2188 7.11458 11.7708 7.15625 12.4375C7.21875 13.3958 7.02083 14.0833 6.5625 14.5C6.10417 14.9167 5.55208 15.1354 4.90625 15.1562C4.26042 15.1771 3.70833 15.0417 3.25 14.75C2.77083 14.4583 2.51042 13.9792 2.46875 13.3125C2.44792 12.9792 2.48958 12.6979 2.59375 12.4688C2.67708 12.2188 2.79167 12.0208 2.9375 11.875C3.0625 11.7083 3.21875 11.5938 3.40625 11.5312C3.59375 11.4479 3.77083 11.4062 3.9375 11.4062C4.29167 11.3854 4.57292 11.4688 4.78125 11.6562C5.01042 11.8229 5.14583 12.0833 5.1875 12.4375C5.20833 12.7708 5.11458 13.0104 4.90625 13.1562C4.69792 13.2812 4.45833 13.2917 4.1875 13.1875C4 13.125 3.89583 12.9792 3.875 12.75C3.83333 12.5208 3.86458 12.3125 3.96875 12.125C3.78125 12.1667 3.625 12.2604 3.5 12.4062C3.375 12.5521 3.3125 12.7708 3.3125 13.0625C3.3125 13.4375 3.41667 13.7604 3.625 14.0312C3.83333 14.2812 4.22917 14.3854 4.8125 14.3438C5.10417 14.3438 5.33333 14.2708 5.5 14.125C5.6875 13.9792 5.83333 13.8125 5.9375 13.625C6.04167 13.4375 6.10417 13.25 6.125 13.0625C6.16667 12.8542 6.1875 12.6875 6.1875 12.5625C6.1875 12.4375 6.15625 12.25 6.09375 12C6.05208 11.75 5.9375 11.5104 5.75 11.2812C5.58333 11.0312 5.33333 10.8125 5 10.625C4.6875 10.4375 4.26042 10.3229 3.71875 10.2812C3.15625 10.2604 2.69792 10.3542 2.34375 10.5625C1.98958 10.75 1.70833 11 1.5 11.3125C1.29167 11.625 1.14583 11.9583 1.0625 12.3125C0.979167 12.6667 0.947917 12.9792 0.96875 13.25C0.989583 13.7917 1.15625 14.2812 1.46875 14.7188C1.76042 15.1562 2.20833 15.5208 2.8125 15.8125C3.39583 16.0833 4.125 16.2708 5 16.375C5.89583 16.4792 6.92708 16.4583 8.09375 16.3125C8.40625 15.5208 8.70833 14.6979 9 13.8438C9.29167 12.9896 9.5625 12.1458 9.8125 11.3125C10.0625 10.4792 10.2812 9.66667 10.4688 8.875C10.6562 8.08333 10.7917 7.35417 10.875 6.6875C11.0625 5.10417 10.9062 3.86458 10.4062 2.96875C9.90625 2.05208 9.16667 1.57292 8.1875 1.53125L8.3125 0.71875C8.6875 0.78125 9.21875 0.854167 9.90625 0.9375C10.6146 1.02083 11.3854 1.09375 12.2188 1.15625C13.0521 1.19792 13.8854 1.21875 14.7188 1.21875C15.5521 1.19792 16.3021 1.11458 16.9688 0.96875L17 1.46875C16.7292 1.55208 16.4792 1.63542 16.25 1.71875C16.0208 1.80208 15.8333 1.91667 15.6875 2.0625C15.5417 2.1875 15.4375 2.36458 15.375 2.59375C15.3125 2.80208 15.3229 3.07292 15.4062 3.40625C15.4896 3.76042 15.625 4.4375 15.8125 5.4375C16 6.4375 16.2292 7.61458 16.5 8.96875C16.7708 10.3229 17.0833 11.7812 17.4375 13.3438C17.7917 14.9062 18.1771 16.4062 18.5938 17.8438C19.0104 19.2812 19.4271 20.5521 19.8438 21.6562C20.2812 22.7604 20.7188 23.6667 21.1562 24.375C21.5938 25.0625 22.0417 25.5312 22.5 25.7812C22.9583 26.0521 23.4375 26.0729 23.9375 25.8438C24.1875 25.6979 24.4062 25.5 24.5938 25.25C24.7604 25.0208 24.9062 24.7292 25.0312 24.375C25.1562 24.0208 25.2292 23.5729 25.25 23.0312L25.7188 22.9375C25.8021 23.2708 25.8229 23.6979 25.7812 24.2188C25.7396 24.7188 25.625 25.2188 25.4375 25.7188C25.25 26.2188 24.9688 26.6562 24.5938 27.0312C24.2188 27.4271 23.7396 27.6562 23.1562 27.7188C22.6771 27.7812 22.1354 27.7604 21.5312 27.6562C20.9479 27.5521 20.3542 27.25 19.75 26.75C19.1667 26.25 18.5938 25.4792 18.0312 24.4375C17.4896 23.3958 17.0208 21.9688 16.625 20.1562C16.5208 19.6354 16.4167 19.125 16.3125 18.625C16.2083 18.1042 16.1042 17.6042 16 17.125C15.3958 17.1667 14.5729 17.2188 13.5312 17.2812C12.4896 17.3438 11.4062 17.4167 10.2812 17.5C9.96875 18.8125 9.72917 19.9792 9.5625 21C9.45833 21.625 9.40625 22.1354 9.40625 22.5312C9.42708 22.9271 9.48958 23.25 9.59375 23.5C9.69792 23.7292 9.86458 23.9167 10.0938 24.0625C10.3438 24.2083 10.6562 24.3438 11.0312 24.4688L11 25.125C10.6458 25.0417 10.1042 24.9896 9.375 24.9688C8.64583 24.9479 7.86458 24.9583 7.03125 25C6.21875 25.0625 5.40625 25.1562 4.59375 25.2812C3.80208 25.4271 3.17708 25.625 2.71875 25.875L2.46875 24.8125C2.90625 24.625 3.28125 24.5 3.59375 24.4375C3.88542 24.3542 4.14583 24.25 4.375 24.125C4.60417 23.9792 4.82292 23.7708 5.03125 23.5C5.23958 23.2083 5.45833 22.7812 5.6875 22.2188C5.875 21.8021 6.125 21.2083 6.4375 20.4375C6.77083 19.6667 7.14583 18.7812 7.5625 17.7812H7.53125ZM13.6562 4.65625C13.4896 5.32292 13.2812 6.09375 13.0312 6.96875C12.7812 7.84375 12.5208 8.78125 12.25 9.78125C11.9792 10.7604 11.6979 11.7812 11.4062 12.8438C11.1354 13.9062 10.875 14.9479 10.625 15.9688C11.6042 15.8229 12.5208 15.7083 13.375 15.625C14.25 15.5417 15.0104 15.4792 15.6562 15.4375C15.1771 13.1875 14.7604 11.1667 14.4062 9.375C14.0521 7.58333 13.8021 6.01042 13.6562 4.65625Z" fill="url(#paint0_linear_1_2)"/>
    <defs>
        <linearGradient id="paint0_linear_1_2" x1="8.5" y1="8.5" x2="27.2888" y2="24.4851" gradientUnits="userSpaceOnUse">
            <stop stop-color="#FFC0CB"/>
            <stop offset="1" stop-color="#9DFFFF"/>
        </linearGradient>
    </defs>
</svg>
